<svg width="191" height="96" viewBox="0 0 191 96" fill="none" xmlns="http://www.w3.org/2000/svg">
<path opacity="0.2" fill-rule="evenodd" clip-rule="evenodd" d="M109.573 29.6218L179.637 8.11764C185.717 6.21792 186.367 1.91403 181.088 -1.50282L119.456 -43.7931C113.169 -48.5026 107.191 -50.2574 97.984 -46.8471L28.0215 -25.4403C21.9414 -23.5406 21.2922 -19.2367 26.5704 -15.8199L85.4163 26.5423C91.7389 31.4876 98.0752 32.7371 109.573 29.6218Z" fill="#D9F4FF"/>
<path opacity="0.25" fill-rule="evenodd" clip-rule="evenodd" d="M33.8058 49.2545L-38.7562 35.8997C-44.9546 34.6966 -46.0529 30.5233 -41.211 26.5712L15.0717 -21.9371C19.8489 -26.1347 28.6771 -28.5434 34.637 -27.2752L107.199 -13.9204C113.397 -12.7173 114.496 -8.54395 109.654 -4.59179L53.3711 43.9164C47.8169 48.8386 39.701 50.2773 33.8058 49.2545Z" fill="#D9F4FF"/>
<path opacity="0.3" fill-rule="evenodd" clip-rule="evenodd" d="M30.0747 54.4699L36.1863 -20.3541C36.6493 -26.7619 32.9746 -28.9222 27.9723 -25.183L-32.6109 17.6185C-37.8294 21.2306 -42.3992 29.2902 -42.7387 35.4801L-48.8503 110.304C-49.3133 116.712 -45.6386 118.872 -40.6363 115.133L19.9469 72.3316C26.0537 68.1428 29.519 60.5328 30.0747 54.4699Z" fill="#D9F4FF"/>
</svg>
