<svg width="24" height="24" viewBox="0 0 24 24" fill="none" xmlns="http://www.w3.org/2000/svg">
<path fill-rule="evenodd" clip-rule="evenodd" d="M12.0001 23C18.0752 23 23.0001 18.0751 23.0001 12C23.0001 5.92487 18.0752 1 12.0001 1C5.92499 1 1.00012 5.92487 1.00012 12C1.00012 18.0751 5.92499 23 12.0001 23ZM12.0001 21C16.9707 21 21.0001 16.9706 21.0001 12C21.0001 7.02944 16.9707 3 12.0001 3C7.02956 3 3.00012 7.02944 3.00012 12C3.00012 16.9706 7.02956 21 12.0001 21ZM10.0001 9.5C10.0001 8.39543 10.8956 7.5 12.0001 7.5C13.1047 7.5 14.0001 8.39543 14.0001 9.5C14.0001 10.6046 13.1047 11.5 12.0001 11.5C11.4478 11.5 11.0001 11.9477 11.0001 12.5V13.5C11.0001 14.0523 11.4478 14.5 12.0001 14.5C12.5524 14.5 13.0001 14.0523 13.0001 13.5V13C14.7253 12.556 16.0001 11.3638 16.0001 9.5C16.0001 7.29086 14.2092 5.5 12.0001 5.5C9.79098 5.5 8.00012 7.29086 8.00012 9.5C8.00012 10.0523 8.44783 10.5 9.00012 10.5C9.55241 10.5 10.0001 10.0523 10.0001 9.5ZM12.0001 18.5C12.8285 18.5 13.5001 17.8284 13.5001 17C13.5001 16.1716 12.8285 15.5 12.0001 15.5C11.1717 15.5 10.5001 16.1716 10.5001 17C10.5001 17.8284 11.1717 18.5 12.0001 18.5Z" fill="#090909" fill-opacity="0.8"/>
</svg>
