<svg width="150" height="106" viewBox="0 0 150 106" fill="none" xmlns="http://www.w3.org/2000/svg">
<g clip-path="url(#clip0_59_5018)">
<g filter="url(#filter0_d_59_5018)">
<path d="M44.5 21.5C44.5 20.3954 45.3954 19.5 46.5 19.5H93.5L102.5 28.5V92.5C102.5 93.6046 101.605 94.5 100.5 94.5H46.5C45.3954 94.5 44.5 93.6046 44.5 92.5V21.5Z" fill="white"/>
<path d="M45.5 21.5C45.5 20.9477 45.9477 20.5 46.5 20.5H93.0858L101.5 28.9142V92.5C101.5 93.0523 101.052 93.5 100.5 93.5H46.5C45.9477 93.5 45.5 93.0523 45.5 92.5V21.5Z" stroke="#AAAAAA" stroke-width="2"/>
</g>
<rect x="72.5" y="64.5" width="22" height="2" rx="1" fill="#CCCCCC"/>
<rect x="52.5" y="59.5" width="18" height="2" rx="1" fill="#FF6F3D"/>
<rect x="72.5" y="69.5" width="22" height="2" rx="1" fill="#CCCCCC"/>
<rect x="72.5" y="74.5" width="22" height="2" rx="1" fill="#CCCCCC"/>
<rect x="52.5" y="79.5" width="42" height="2" rx="1" fill="#CCCCCC"/>
<rect x="52.5" y="84.5" width="42" height="2" rx="1" fill="#FF6F3D"/>
<path d="M57.5 70.5L52.5 76.5H70.5L64.2 68.5L60.5 73.5L57.5 70.5Z" fill="#FF6F3D"/>
<circle cx="56.5" cy="66.5" r="2" fill="#FF6F3D"/>
<path d="M92.5 20.5L101.5 29.5H93.5C92.9477 29.5 92.5 29.0523 92.5 28.5V20.5Z" fill="#AAAAAA"/>
<path d="M69.4994 37.5C69.4994 39.1569 67.9324 40.5 65.9994 40.5C64.0664 40.5 62.4994 39.1569 62.4994 37.5" stroke="#AAAAAA" stroke-width="2" stroke-linecap="round"/>
<path d="M86.4994 37.5C86.4994 39.1569 84.9324 40.5 82.9994 40.5C81.0664 40.5 79.4994 39.1569 79.4994 37.5" stroke="#AAAAAA" stroke-width="2" stroke-linecap="round"/>
<path d="M102.023 55.0293C114.21 62.748 110.621 67.7407 105.679 68.0292C102.572 68.2107 98.7729 67.2167 96.7418 66.8105" stroke="#AAAAAA" stroke-width="2" stroke-linecap="round"/>
<path d="M92.5698 66.6636C92.7643 67.1531 93.3871 67.441 94.3032 67.6229C95.5285 67.8663 96.0462 67.3563 96.7407 66.8104" stroke="#AAAAAA" stroke-width="2" stroke-linecap="round"/>
<path d="M45.0001 55C32.8126 62.7187 37.0209 67.7406 41.9623 68.0291C45.0695 68.2106 48.8685 67.2166 50.8997 66.8104" stroke="#AAAAAA" stroke-width="2" stroke-linecap="round"/>
<path d="M55.0716 66.6636C54.8771 67.1531 54.2543 67.441 53.3382 67.6229C52.1129 67.8663 51.5952 67.3563 50.9007 66.8104" stroke="#AAAAAA" stroke-width="2" stroke-linecap="round"/>
<path d="M10 4.5H16.125L11.3125 12.5H17" stroke="#9ADAF3" stroke-width="2" stroke-linecap="round"/>
<path d="M22 12.5H25.5L22.75 17.5H26" stroke="#9ADAF3" stroke-width="2" stroke-linecap="round"/>
<path d="M31 18.5H34.5L31.75 23.5H35" stroke="#9ADAF3" stroke-width="2" stroke-linecap="round"/>
<circle cx="72" cy="49" r="1.5" fill="#AAAAAA"/>
</g>
<defs>
<filter id="filter0_d_59_5018" x="34.5" y="14.5" width="78" height="95" filterUnits="userSpaceOnUse" color-interpolation-filters="sRGB">
<feFlood flood-opacity="0" result="BackgroundImageFix"/>
<feColorMatrix in="SourceAlpha" type="matrix" values="0 0 0 0 0 0 0 0 0 0 0 0 0 0 0 0 0 0 127 0" result="hardAlpha"/>
<feOffset dy="5"/>
<feGaussianBlur stdDeviation="5"/>
<feColorMatrix type="matrix" values="0 0 0 0 0.333333 0 0 0 0 0.333333 0 0 0 0 0.333333 0 0 0 0.1 0"/>
<feBlend mode="normal" in2="BackgroundImageFix" result="effect1_dropShadow_59_5018"/>
<feBlend mode="normal" in="SourceGraphic" in2="effect1_dropShadow_59_5018" result="shape"/>
</filter>
<clipPath id="clip0_59_5018">
<rect width="150" height="105" fill="white" transform="translate(0 0.5)"/>
</clipPath>
</defs>
</svg>
