<svg width="24" height="24" viewBox="0 0 24 24" fill="none" xmlns="http://www.w3.org/2000/svg">
<path fill-rule="evenodd" clip-rule="evenodd" d="M10.5442 2C10.1138 2 9.73167 2.27543 9.59556 2.68377L8.71557 5.32373L7.92676 5.77915L5.20049 5.22126C4.7788 5.13497 4.3492 5.3282 4.13399 5.70096L2.63399 8.29904C2.41877 8.6718 2.46623 9.14046 2.75181 9.46251L4.5981 11.5446L4.59812 12.4554L2.75185 14.5375C2.46627 14.8595 2.41881 15.3282 2.63403 15.7009L4.13403 18.299C4.34924 18.6718 4.77884 18.865 5.20053 18.7787L7.92678 18.2208L8.71557 18.6763L9.59556 21.3162C9.73167 21.7246 10.1138 22 10.5442 22H13.5442C13.9747 22 14.3568 21.7246 14.4929 21.3162L15.3729 18.6763L16.1617 18.2208L18.888 18.7787C19.3097 18.865 19.7393 18.6718 19.9545 18.299L21.4545 15.701C21.6697 15.3282 21.6223 14.8595 21.3367 14.5375L19.4904 12.4554L19.4904 11.5446L21.3367 9.46248C21.6223 9.14043 21.6697 8.67178 21.4545 8.29901L19.9545 5.70094C19.7393 5.32817 19.3097 5.13495 18.888 5.22124L16.1617 5.77913L15.3729 5.32372L14.4929 2.68377C14.3568 2.27543 13.9747 2 13.5442 2H10.5442ZM10.4929 6.31623L11.265 4H12.8235L13.5956 6.31623C13.6729 6.54819 13.8325 6.74379 14.0443 6.86604L15.4905 7.70095C15.7022 7.82319 15.9514 7.86363 16.1909 7.81461L18.5829 7.32513L19.3621 8.67482L17.7422 10.5016C17.58 10.6845 17.4904 10.9205 17.4904 11.165L17.4904 12.8349C17.4904 13.0794 17.58 13.3155 17.7422 13.4984L19.3621 15.3252L18.5828 16.6748L16.1909 16.1854C15.9513 16.1363 15.7021 16.1768 15.4904 16.299L14.0442 17.134C13.8325 17.2562 13.6729 17.4518 13.5956 17.6838L12.8235 20H11.265L10.4929 17.6838C10.4156 17.4518 10.256 17.2562 10.0443 17.134L8.59815 16.299C8.3864 16.1768 8.13719 16.1363 7.89765 16.1853L5.5057 16.6748L4.72646 15.3251L6.34633 13.4984C6.50856 13.3154 6.59813 13.0794 6.59813 12.8349L6.59809 11.165C6.59808 10.9205 6.50851 10.6845 6.34629 10.5016L4.72642 8.67484L5.50566 7.32516L7.89761 7.81463C8.13715 7.86365 8.38634 7.82321 8.59809 7.70096L10.0442 6.86603C10.256 6.74377 10.4156 6.54818 10.4929 6.31623ZM12 10C10.8954 10 10 10.8954 10 12C10 13.1046 10.8954 14 12 14C13.1046 14 14 13.1046 14 12C14 10.8954 13.1046 10 12 10Z" fill="#090909" fill-opacity="0.8"/>
</svg>
